<?xml version="1.0" encoding="utf-8"?>
<svg version="1.2" baseProfile="tiny" xmlns="http://www.w3.org/2000/svg" xmlns:xlink="http://www.w3.org/1999/xlink"
	 x="0px" y="0px" viewBox="0 0 89.25 34" overflow="visible" xml:space="preserve">
<g>
	<path fill="#161616" d="M21.1,20.8c0,1.2-0.2,2.3-0.6,3.3c-0.4,1-1,1.8-1.7,2.5c-0.7,0.7-1.5,1.2-2.5,1.6c-0.9,0.4-1.9,0.5-2.9,0.5
		s-2-0.2-2.9-0.5c-0.9-0.4-1.8-0.9-2.5-1.6c-0.7-0.7-1.3-1.5-1.7-2.5c-0.4-1-0.6-2.1-0.6-3.3V0H0v20.9c0,2.6,0.6,4.9,1.7,6.9
		c1.1,2,2.7,3.5,4.7,4.5c2,1.1,4.3,1.6,7,1.6c2.6,0,5-0.5,7-1.6c2-1.1,3.6-2.6,4.7-4.5c1.1-2,1.7-4.2,1.7-6.9V0h-5.6V20.8z"/>
	<path fill="#161616" d="M40,0L29.5,33.3h5.7l2.3-7.2h13.1l2.3,7.2h5.7L48.1,0H40L40,0z M39.1,20.9L44,5.4l4.9,15.5H39.1z"/>
	<path fill="#0060AB" d="M89.2,0h-6.8l-7.8,16.6L66.8,0h-6.8l7.8,16.6l-7.8,16.6h6.8l7.8-16.6l7.8,16.6h6.8l-7.8-16.6L89.2,0z"/>
</g>
</svg>
